PathFileType	4	(X/Y/Z)	/Users/itak/Documents/Research/Walk-IL/dataset/trc/00514_00183.trc
DataRate	CameraRate	NumFrames	NumMarkers	Units	OrigDataRate	OrigDataStartFrame	OrigNumFrames
100.000000	100.000000	4	53	mm	100.000000	181	483
Frame#	Time	RPSI			LPSI			L3			STRN			T10			C7			CLAV			RBAK			LBAK			LSHO			LUPA			LAEL			LAOL			LWTS			LWPS			LFRA			LHPS			LHTS			RSHO			RUPA			RAEL			RAOL			RWTS			RWPS			RFRA			RIFD			RHTS			RHPS			RBHD			LFHD			RFHD			LBHD			LHIP			RHIP			RASI			LASI			LKNE			LTHI			LANK			LTIP			LTOE			LMT1			LMT5			LHEE			RKNE			RTHI			RANK			RTIP			RTOE			RMT1			RMT5			RHEE			LIFD			
		X1	Y1	Z1	X2	Y2	Z2	X3	Y3	Z3	X4	Y4	Z4	X5	Y5	Z5	X6	Y6	Z6	X7	Y7	Z7	X8	Y8	Z8	X9	Y9	Z9	X10	Y10	Z10	X11	Y11	Z11	X12	Y12	Z12	X13	Y13	Z13	X14	Y14	Z14	X15	Y15	Z15	X16	Y16	Z16	X17	Y17	Z17	X18	Y18	Z18	X19	Y19	Z19	X20	Y20	Z20	X21	Y21	Z21	X22	Y22	Z22	X23	Y23	Z23	X24	Y24	Z24	X25	Y25	Z25	X26	Y26	Z26	X27	Y27	Z27	X28	Y28	Z28	X29	Y29	Z29	X30	Y30	Z30	X31	Y31	Z31	X32	Y32	Z32	X33	Y33	Z33	X34	Y34	Z34	X35	Y35	Z35	X36	Y36	Z36	X37	Y37	Z37	X38	Y38	Z38	X39	Y39	Z39	X40	Y40	Z40	X41	Y41	Z41	X42	Y42	Z42	X43	Y43	Z43	X44	Y44	Z44	X45	Y45	Z45	X46	Y46	Z46	X47	Y47	Z47	X48	Y48	Z48	X49	Y49	Z49	X50	Y50	Z50	X51	Y51	Z51	X52	Y52	Z52	X53	Y53	Z53	

182	1.81	-576.9209594726562	941.7550048828125	-233.5141143798828	-568.3953857421875	936.1853637695312	-356.8133239746094	-568.9324340820312	1013.796630859375	-310.2868957519531	-341.5129089355469	1156.754272460938	-293.2136535644531	-582.858642578125	1118.006469726562	-316.6863403320312	-513.0817260742188	1342.799926757812	-304.2079162597656	-368.4691467285156	1254.994506835938	-292.9844665527344	-582.26513671875	1224.978759765625	-229.0599975585938	-535.1061401367188	1292.373901367188	-394.7414855957031	-432.4875183105469	1335.984497070312	-457.7984008789062	-448.8558044433594	1208.334838867188	-517.1192626953125	-446.9877014160156	996.5189819335938	-537.1077270507812	-524.0050659179688	994.5049438476562	-473.0069274902344	-382.4725952148438	799.2022705078125	-482.1772766113281	-459.3790283203125	771.4779663085938	-529.7864379882812	-435.25537109375	909.6390991210938	-534.77880859375	-442.8943481445312	715.8890991210938	-521.01123046875	-382.3765563964844	719.7910766601562	-496.3680114746094	-479.355224609375	1330.79638671875	-152.4782409667969	-516.5175170898438	1266.7197265625	-104.6594009399414	-584.1024780273438	1007.847717285156	-75.42839050292969	-617.6055297851562	1000.080810546875	-132.2649993896484	-533.0247802734375	784.6991577148438	-83.02545928955078	-624.1062622070312	782.17578125	-65.89564514160156	-596.8110961914062	955.0169677734375	-71.64077758789062	-577.9603881835938	631.6613159179688	-91.48251342773438	-554.7078247070312	692.3775634765625	-63.49847793579102	-623.669921875	710.3743286132812	-63.38683319091797	-483.2784729003906	1481.181640625	-207.1529693603516	-338.4054565429688	1558.287475585938	-321.5577392578125	-360.6102294921875	1543.039428710938	-197.1858825683594	-469.7699584960938	1495.937744140625	-365.5249938964844	-473.8408508300781	852.2439575195312	-481.5052185058594	-467.8497924804688	848.673583984375	-102.8489303588867	-373.7367553710938	889.3953247070312	-171.5726623535156	-370.8938903808594	879.8002319335938	-413.8834838867188	-533.9241333007812	436.1290283203125	-431.6172790527344	-480.0179443359375	586.899169921875	-454.568359375	-885.310546875	155.1939086914062	-434.0895385742188	-644.5599975585938	330.6833801269531	-439.3201904296875	-780.9779663085938	34.91427993774414	-346.13818359375	-824.4732666015625	74.06558990478516	-325.0309448242188	-827.2979736328125	64.28318786621094	-429.4346313476562	-913.2763061523438	199.7365264892578	-379.5971984863281	-346.9242858886719	479.9695434570312	-180.1925354003906	-412.42578125	724.9652099609375	-110.4418258666992	-359.8464965820312	47.26613616943359	-230.4013824462891	-312.6539611816406	336.1606140136719	-204.3538513183594	-155.6036224365234	50.31503295898438	-252.8897552490234	-216.2618865966797	47.87554931640625	-298.0810546875	-250.0297088623047	47.9460334777832	-207.6821594238281	-404.9618835449219	35.55880737304688	-284.3257446289062	-405.2712097167969	643.2667236328125	-468.2405700683594	
183	1.82	-566.7301635742188	942.3298950195312	-232.5204315185547	-558.3297729492188	936.172119140625	-355.7936706542969	-558.4989013671875	1014.271545410156	-309.0321044921875	-331.5575866699219	1157.62109375	-291.0111083984375	-571.9579467773438	1118.369995117188	-315.4734802246094	-503.4817504882812	1343.4521484375	-302.5478210449219	-358.6412048339844	1255.836181640625	-290.8959655761719	-572.510986328125	1225.423950195312	-227.6782379150391	-525.1142578125	1292.923583984375	-393.2588806152344	-422.3367004394531	1336.808227539062	-455.8424377441406	-438.1986694335938	1209.123413085938	-515.0927124023438	-435.8536987304688	997.3635864257812	-534.5941162109375	-513.1857299804688	995.1875	-470.9280090332031	-370.8894348144531	800.3899536132812	-480.3117980957031	-447.8336181640625	772.203369140625	-527.6189575195312	-424.07373046875	910.5984497070312	-532.5719604492188	-431.3701477050781	716.7735595703125	-518.3952026367188	-370.6849365234375	720.7837524414062	-493.94775390625	-469.9942626953125	1331.599487304688	-150.7671661376953	-507.0035095214844	1267.482421875	-102.862663269043	-573.52392578125	1008.369873046875	-73.16698455810547	-606.833984375	1000.303527832031	-130.0766296386719	-521.6541748046875	785.3497924804688	-79.90948486328125	-612.782470703125	782.6610717773438	-63.13087463378906	-585.98193359375	955.504638671875	-69.3062744140625	-566.179931640625	632.1766357421875	-88.00238800048828	-543.1829833984375	693.039794921875	-60.12154388427734	-612.1824951171875	710.8687744140625	-60.34433746337891	-475.0208435058594	1481.591796875	-205.8186492919922	-330.6643371582031	1559.817993164062	-320.1282043457031	-353.0565490722656	1544.776245117188	-195.7584228515625	-461.1353454589844	1495.910522460938	-364.2107543945312	-463.9532470703125	853.2579345703125	-480.7100219726562	-457.8548889160156	849.7047729492188	-101.4287643432617	-363.4319458007812	890.7261352539062	-169.6672058105469	-360.5298156738281	880.5630493164062	-411.741943359375	-514.8348999023438	434.1556091308594	-433.1012878417969	-464.4765625	586.4314575195312	-454.2955627441406	-871.9008178710938	162.8266143798828	-437.9889831542969	-626.3042602539062	330.8271179199219	-441.5912780761719	-777.1685180664062	33.94450378417969	-347.05810546875	-817.2988891601562	79.15499114990234	-327.4581909179688	-820.1035766601562	67.83770751953125	-431.6794738769531	-897.3138427734375	209.2745666503906	-383.9622497558594	-338.5051574707031	479.9272766113281	-179.4756622314453	-402.26025390625	725.8819580078125	-109.2062149047852	-359.0883178710938	47.60305786132812	-230.3477172851562	-306.5851745605469	335.6573486328125	-204.4884185791016	-154.2782440185547	47.35910034179688	-253.454833984375	-215.4897155761719	46.44488525390625	-298.3904724121094	-249.0523529052734	47.11114120483398	-207.9165191650391	-404.3847045898438	36.07863616943359	-284.2333679199219	-393.218994140625	644.5287475585938	-465.0781860351562	
184	1.83	-556.696044921875	942.866943359375	-231.4140472412109	-548.5123291015625	936.12890625	-354.6847534179688	-548.4371337890625	1014.7578125	-307.733642578125	-321.80029296875	1158.451904296875	-289.0051574707031	-561.229248046875	1118.828735351562	-314.1835327148438	-493.968505859375	1344.157104492188	-300.9046936035156	-348.9192199707031	1256.658813476562	-288.9813537597656	-562.8379516601562	1225.9677734375	-226.1914215087891	-515.3243408203125	1293.511840820312	-391.78173828125	-412.4329528808594	1337.639526367188	-453.9913940429688	-427.6731872558594	1209.931518554688	-513.2401733398438	-424.6667785644531	998.2360229492188	-532.35595703125	-502.4263305664062	995.8401489257812	-469.2304992675781	-359.1575012207031	801.7351684570312	-478.5355834960938	-435.9791259765625	772.9437255859375	-525.6796264648438	-412.824462890625	911.5579833984375	-530.5858764648438	-419.2765502929688	717.7387084960938	-516.1387939453125	-358.5685424804688	721.9957885742188	-491.741455078125	-460.5335083007812	1332.4443359375	-149.1072845458984	-497.3526000976562	1268.297485351562	-101.052848815918	-562.8241577148438	1008.942565917969	-70.79102325439453	-596.0637817382812	1000.584777832031	-127.7073287963867	-510.0170288085938	786.1198120117188	-76.80606079101562	-601.1565551757812	783.1470947265625	-60.21402740478516	-575.0185546875	956.030517578125	-66.84490203857422	-553.9471435546875	632.7525024414062	-84.45042419433594	-531.2562255859375	693.7904052734375	-56.71681594848633	-600.30126953125	711.3646240234375	-57.15887451171875	-466.7380065917969	1481.985229492188	-204.5529327392578	-322.8309326171875	1561.319580078125	-318.6855163574219	-345.4707946777344	1546.41455078125	-194.3415832519531	-452.4434509277344	1495.955078125	-362.9636840820312	-455.4756164550781	855.0099487304688	-480.5851745605469	-448.0043334960938	850.6340942382812	-99.95277404785156	-353.3153991699219	891.9563598632812	-167.8344421386719	-350.40625	881.4012451171875	-409.7464294433594	-495.1475830078125	432.3174133300781	-434.7030334472656	-448.8994140625	586.1091918945312	-454.1519775390625	-857.3553466796875	170.5453186035156	-441.6454467773438	-607.2362060546875	331.0397644042969	-443.8102416992188	-771.9039916992188	33.05477905273438	-348.3966674804688	-808.5289306640625	84.54039001464844	-330.0120239257812	-811.61669921875	72.14530181884766	-434.0437316894531	-880.2977905273438	218.5814208984375	-387.9884338378906	-331.0278930664062	479.6332397460938	-178.5606994628906	-392.52294921875	726.5782470703125	-107.8152236938477	-358.4842529296875	47.83152389526367	-230.3196411132812	-301.2986145019531	334.9920959472656	-204.2834320068359	-153.2445983886719	44.86537933349609	-253.7269897460938	-214.839111328125	45.35652542114258	-298.4848327636719	-248.2644805908203	46.33203125	-207.9540405273438	-403.895263671875	36.48591232299805	-284.2130126953125	-380.4791564941406	645.910888671875	-462.2220153808594	
185	1.84	-546.8139038085938	943.40966796875	-230.1746368408203	-538.9166870117188	936.0823364257812	-353.4676818847656	-538.728759765625	1015.250366210938	-306.3467712402344	-312.2276306152344	1159.272827148438	-287.2246398925781	-550.732666015625	1119.379150390625	-312.74755859375	-484.5721740722656	1344.907470703125	-299.2701721191406	-339.3267211914062	1257.476806640625	-287.2601623535156	-553.2294921875	1226.5888671875	-224.5519714355469	-505.7810363769531	1294.12646484375	-390.281005859375	-402.8478698730469	1338.47509765625	-452.2623596191406	-417.3728637695312	1210.743408203125	-511.5640563964844	-413.5067749023438	999.1123046875	-530.4396362304688	-491.7608337402344	996.442138671875	-467.9034729003906	-347.3233337402344	803.2301635742188	-476.8183898925781	-423.8390502929688	773.7119140625	-523.971923828125	-401.5492248535156	912.4913330078125	-528.8212280273438	-406.635498046875	718.8115844726562	-514.2758178710938	-346.0668029785156	723.436279296875	-489.7567749023438	-450.9850463867188	1333.322021484375	-147.4912872314453	-487.5668334960938	1269.145141601562	-99.22518157958984	-552.0023193359375	1009.552368164062	-68.29973602294922	-585.3045043945312	1000.91064453125	-125.1459732055664	-498.115966796875	786.9973754882812	-73.74155426025391	-589.2322387695312	783.6232299804688	-57.14756774902344	-563.9276123046875	956.5843505859375	-64.24973297119141	-541.26904296875	633.3840942382812	-80.84034729003906	-518.9254760742188	694.6200561523438	-53.30172729492188	-588.0256958007812	711.85302734375	-53.83729934692383	-458.4418334960938	1482.393188476562	-203.3612823486328	-314.8971862792969	1562.790405273438	-317.2310180664062	-337.8427734375	1547.94873046875	-192.9343719482422	-443.7244262695312	1496.110229492188	-361.7875366210938	-447.9720458984375	857.1942749023438	-480.8746032714844	-438.2784729003906	851.4765014648438	-98.42579650878906	-343.3807983398438	893.0718383789062	-166.0963287353516	-340.5081176757812	882.3223876953125	-407.9257507324219	-474.9331970214844	430.7179870605469	-436.3497619628906	-433.3455810546875	585.9885864257812	-454.0960388183594	-841.7059326171875	178.1770935058594	-444.9006652832031	-587.4400024414062	331.3841552734375	-445.8952026367188	-764.7487182617188	32.43934631347656	-350.3167419433594	-797.8795776367188	89.94499969482422	-332.6797790527344	-801.5655517578125	77.06925201416016	-436.5408630371094	-862.36767578125	227.3750457763672	-391.4326171875	-324.55126953125	479.119873046875	-177.5066680908203	-383.2715454101562	727.0258178710938	-106.2975463867188	-358.0236511230469	47.95932769775391	-230.3270568847656	-296.7668151855469	334.1897583007812	-203.7804260253906	-152.4857330322266	42.87617111206055	-253.7901458740234	-214.3082122802734	44.55642700195312	-298.4307556152344	-247.6564025878906	45.6207389831543	-207.8614044189453	-403.4955749511719	36.78871154785156	-284.2632751464844	-367.1504516601562	647.3764038085938	-459.7905578613281	
